# Blender 4.1.1
# www.blender.org
mtllib WallComponent.mtl
o Cube.005
v 0.437570 0.437570 -0.500000
v 0.437570 0.500000 -0.437570
v 0.500000 0.437570 -0.437570
v 0.437570 0.468744 -0.491660
v 0.468744 0.437570 -0.491660
v 0.467425 0.467425 -0.483558
v 0.468744 0.491660 -0.437570
v 0.437570 0.491660 -0.468744
v 0.467425 0.483558 -0.467425
v 0.491660 0.437570 -0.468744
v 0.491660 0.468744 -0.437570
v 0.483558 0.467425 -0.467425
v 0.437570 -0.500000 -0.437570
v 0.437570 -0.437570 -0.500000
v 0.500000 -0.437570 -0.437570
v 0.437570 -0.491660 -0.468744
v 0.468744 -0.491660 -0.437570
v 0.467425 -0.483558 -0.467425
v 0.468744 -0.437570 -0.491660
v 0.437570 -0.468744 -0.491660
v 0.467425 -0.467425 -0.483558
v 0.491660 -0.468744 -0.437570
v 0.491660 -0.437570 -0.468744
v 0.483558 -0.467425 -0.467425
v 0.500000 0.437570 0.437570
v 0.437570 0.500000 0.437570
v 0.437570 0.437570 0.500000
v 0.491660 0.468744 0.437570
v 0.491660 0.437570 0.468744
v 0.483558 0.467425 0.467425
v 0.437570 0.491660 0.468744
v 0.468744 0.491660 0.437570
v 0.467425 0.483558 0.467425
v 0.468744 0.437570 0.491660
v 0.437570 0.468744 0.491660
v 0.467425 0.467425 0.483558
v 0.500000 -0.437570 0.437570
v 0.437570 -0.437570 0.500000
v 0.437570 -0.500000 0.437570
v 0.491660 -0.437570 0.468744
v 0.491660 -0.468744 0.437570
v 0.483558 -0.467425 0.467425
v 0.437570 -0.468744 0.491660
v 0.468744 -0.437570 0.491660
v 0.467425 -0.467425 0.483558
v 0.468744 -0.491660 0.437570
v 0.437570 -0.491660 0.468744
v 0.467425 -0.483558 0.467425
v -0.500000 0.500000 -0.437570
v -0.500000 0.437570 -0.500000
v -0.500000 0.491636 -0.468785
v -0.500000 0.468785 -0.491636
v -0.500000 -0.437570 -0.500000
v -0.500000 -0.500000 -0.437570
v -0.500000 -0.468785 -0.491636
v -0.500000 -0.491636 -0.468785
v -0.500000 0.437570 0.500000
v -0.500000 0.500000 0.437570
v -0.500000 0.468785 0.491636
v -0.500000 0.491636 0.468785
v -0.500000 -0.500000 0.437570
v -0.500000 -0.437570 0.500000
v -0.500000 -0.491636 0.468785
v -0.500000 -0.468785 0.491636
v -0.464885 -0.500000 -0.437570
v -0.464885 -0.491637 -0.468783
v -0.464885 -0.468783 -0.491637
v -0.464885 -0.437570 -0.500000
v -0.464885 0.500000 0.437570
v -0.464885 0.491637 0.468783
v -0.464885 0.468783 0.491637
v -0.464885 0.437570 0.500000
v -0.464885 -0.500000 0.437570
v -0.464885 -0.491637 0.468783
v -0.464885 -0.468783 0.491637
v -0.464885 -0.437570 0.500000
v -0.464885 0.500000 -0.437570
v -0.464885 0.491637 -0.468783
v -0.464885 0.468783 -0.491637
v -0.464885 0.437570 -0.500000
vn -0.0000 -0.1305 0.9914
vn -0.0000 0.1305 0.9914
vn -0.0000 0.9914 -0.1305
vn -0.0000 0.9914 0.1305
vn 0.1296 0.1296 -0.9831
vn 0.1216 0.4916 -0.8623
vn 0.4473 0.4473 -0.7744
vn 0.4915 0.1216 -0.8623
vn 0.1216 0.8623 -0.4916
vn 0.4473 0.7744 -0.4473
vn 0.1296 0.9831 -0.1296
vn 0.4915 0.8623 -0.1216
vn 0.8623 0.4915 -0.1216
vn 0.7744 0.4473 -0.4473
vn 0.9831 0.1296 -0.1296
vn 0.8623 0.1216 -0.4915
vn 0.1296 -0.9831 -0.1296
vn 0.1216 -0.8623 -0.4916
vn 0.4473 -0.7744 -0.4473
vn 0.4915 -0.8623 -0.1216
vn 0.1216 -0.4916 -0.8623
vn 0.4473 -0.4473 -0.7744
vn 0.1296 -0.1296 -0.9831
vn 0.4915 -0.1216 -0.8623
vn 0.8623 -0.1216 -0.4915
vn 0.7744 -0.4473 -0.4473
vn 0.9831 -0.1296 -0.1296
vn 0.8623 -0.4915 -0.1216
vn 0.9831 0.1296 0.1296
vn 0.8623 0.4915 0.1216
vn 0.7744 0.4473 0.4473
vn 0.8623 0.1216 0.4915
vn 0.4915 0.8623 0.1216
vn 0.4473 0.7744 0.4473
vn 0.1296 0.9831 0.1296
vn 0.1216 0.8623 0.4916
vn 0.1216 0.4916 0.8623
vn 0.4473 0.4473 0.7744
vn 0.1296 0.1296 0.9831
vn 0.4915 0.1216 0.8623
vn 0.9831 -0.1296 0.1296
vn 0.8623 -0.1216 0.4915
vn 0.7744 -0.4473 0.4473
vn 0.8623 -0.4915 0.1216
vn 0.4915 -0.1216 0.8623
vn 0.4473 -0.4473 0.7744
vn 0.1296 -0.1296 0.9831
vn 0.1216 -0.4916 0.8623
vn 0.1216 -0.8623 0.4916
vn 0.4473 -0.7744 0.4473
vn 0.1296 -0.9831 0.1296
vn 0.4915 -0.8623 0.1216
vn -0.0000 -0.9914 -0.1305
vn -0.0000 -0.8660 -0.5000
vn -0.0000 -0.5000 -0.8660
vn -0.0000 -0.1305 -0.9914
vn -0.0000 0.8660 0.5000
vn -0.0000 0.5000 0.8660
vn -0.0000 -0.9915 0.1304
vn -0.0000 -0.8661 0.4999
vn -0.0000 -0.4999 0.8661
vn -0.0000 -0.1304 0.9915
vn -0.0000 0.9915 -0.1304
vn -0.0000 0.8661 -0.4999
vn -0.0000 0.4999 -0.8661
vn -0.0000 0.1304 -0.9915
vn -0.0000 0.1305 -0.9914
vn -0.0000 0.5000 -0.8660
vn -0.0000 0.8660 -0.5000
vn -0.0000 -0.5000 0.8660
vn -0.0000 -0.8660 0.5000
vn -0.0000 -0.9914 0.1305
vn -0.0000 0.4999 0.8661
vn -0.0000 0.1304 0.9915
vn -0.0000 0.8661 0.4999
vn -0.0000 0.9915 0.1304
vn -0.0000 -0.4999 -0.8661
vn -0.0000 -0.1304 -0.9915
vn -0.0000 -0.8661 -0.4999
vn -0.0000 -0.9915 -0.1304
vt 0.035208 0.062517
vt 0.035208 0.937483
vt 0.000100 0.937483
vt 0.000100 0.062517
vt 0.937483 0.964792
vt 0.937483 0.999900
vt 0.062517 0.999900
vt 0.062517 0.964792
vt 0.327873 0.702559
vt 0.315331 0.694758
vt 0.321399 0.684388
vt 0.332300 0.689248
vt 0.305358 0.684760
vt 0.315692 0.678330
vt 0.297541 0.672249
vt 0.310652 0.667719
vt 0.323011 0.665541
vt 0.323543 0.676589
vt 0.334885 0.664971
vt 0.334477 0.676788
vt 0.701018 0.670718
vt 0.693109 0.683282
vt 0.682728 0.676839
vt 0.687706 0.666173
vt 0.683089 0.693268
vt 0.676926 0.682940
vt 0.670657 0.701021
vt 0.666211 0.687960
vt 0.663977 0.675626
vt 0.674942 0.675086
vt 0.663428 0.663692
vt 0.675312 0.664099
vt 0.334277 0.336309
vt 0.322393 0.335901
vt 0.322763 0.324914
vt 0.333728 0.324375
vt 0.309999 0.333827
vt 0.314977 0.323161
vt 0.296686 0.329282
vt 0.304595 0.316719
vt 0.314616 0.306732
vt 0.320778 0.317060
vt 0.327047 0.298980
vt 0.331493 0.312040
vt 0.662820 0.335029
vt 0.663227 0.323212
vt 0.674162 0.323411
vt 0.674694 0.334459
vt 0.665404 0.310753
vt 0.676306 0.315613
vt 0.669832 0.297441
vt 0.682373 0.305242
vt 0.692346 0.315240
vt 0.682012 0.321670
vt 0.700163 0.327751
vt 0.687052 0.332281
vt 0.986496 0.957017
vt 0.997605 0.968157
vt 0.987154 0.978564
vt 0.976141 0.967505
vt 0.976694 0.988961
vt 0.965697 0.977886
vt 0.966222 0.999347
vt 0.955152 0.988174
vt 0.011208 0.042983
vt 0.000100 0.031843
vt 0.010551 0.021436
vt 0.021564 0.032495
vt 0.021011 0.011039
vt 0.032007 0.022114
vt 0.031482 0.000653
vt 0.042552 0.011827
vt 0.986464 0.042485
vt 0.976148 0.031968
vt 0.965742 0.021556
vt 0.955228 0.011236
vt 0.011240 0.957515
vt 0.021556 0.968031
vt 0.031963 0.978444
vt 0.042476 0.988764
vt 0.000100 0.937483
vt 0.000100 0.062517
vt 0.035208 0.062517
vt 0.035208 0.937483
vt 0.020937 0.989482
vt 0.031371 0.999900
vt 0.010513 0.979054
vt 0.000100 0.968615
vt 0.976768 0.010518
vt 0.966333 0.000100
vt 0.987191 0.020946
vt 0.997605 0.031385
vt 0.062517 0.999900
vt 0.062517 0.964792
vt 0.937483 0.964792
vt 0.937483 0.999900
vt 0.439886 0.476702
vt 0.624094 0.476702
vt 0.624094 0.666660
vt 0.439886 0.666660
vt 0.439699 0.286558
vt 0.439699 0.476516
vt 0.255491 0.476516
vt 0.255491 0.286558
vt 0.624281 0.470766
vt 0.624281 0.286558
vt 0.808489 0.286558
vt 0.808489 0.470766
vt 0.439886 0.476516
vt 0.439886 0.286558
vt 0.624094 0.286558
vt 0.624094 0.476516
vt 0.439699 0.666660
vt 0.255491 0.666660
vt 0.255491 0.476702
vt 0.439700 0.476702
s 1
usemtl Flag
f 38/97/47 27/98/39 72/99/74 76/100/62
f 39/101/51 73/102/59 65/103/80 13/104/17
f 25/105/29 37/106/41 15/107/27 3/108/15
f 80/109/66 1/110/5 14/111/23 68/112/78
f 26/113/35 2/114/11 77/115/63 69/116/76
usemtl Material.001
f 76/1/1 72/2/2 57/3/2 62/4/1
f 77/5/3 49/6/3 58/7/4 69/8/4
f 1/9/5 4/10/6 6/11/7 5/12/8
f 4/10/6 8/13/9 9/14/10 6/11/7
f 2/15/11 7/16/12 9/14/10 8/13/9
f 7/16/12 11/17/13 12/18/14 9/14/10
f 3/19/15 10/20/16 12/18/14 11/17/13
f 10/20/16 5/12/8 6/11/7 12/18/14
f 6/11/7 9/14/10 12/18/14
f 13/21/17 16/22/18 18/23/19 17/24/20
f 16/22/18 20/25/21 21/26/22 18/23/19
f 14/27/23 19/28/24 21/26/22 20/25/21
f 19/28/24 23/29/25 24/30/26 21/26/22
f 15/31/27 22/32/28 24/30/26 23/29/25
f 22/32/28 17/24/20 18/23/19 24/30/26
f 18/23/19 21/26/22 24/30/26
f 25/33/29 28/34/30 30/35/31 29/36/32
f 28/34/30 32/37/33 33/38/34 30/35/31
f 26/39/35 31/40/36 33/38/34 32/37/33
f 31/40/36 35/41/37 36/42/38 33/38/34
f 27/43/39 34/44/40 36/42/38 35/41/37
f 34/44/40 29/36/32 30/35/31 36/42/38
f 30/35/31 33/38/34 36/42/38
f 37/45/41 40/46/42 42/47/43 41/48/44
f 40/46/42 44/49/45 45/50/46 42/47/43
f 38/51/47 43/52/48 45/50/46 44/49/45
f 43/52/48 47/53/49 48/54/50 45/50/46
f 39/55/51 46/56/52 48/54/50 47/53/49
f 46/56/52 41/48/44 42/47/43 48/54/50
f 42/47/43 45/50/46 48/54/50
f 65/57/53 54/58/53 56/59/54 66/60/54
f 66/60/54 56/59/54 55/61/55 67/62/55
f 67/62/55 55/61/55 53/63/56 68/64/56
f 3/19/15 15/31/27 23/29/25 10/20/16
f 10/20/16 23/29/25 19/28/24 5/12/8
f 5/12/8 19/28/24 14/27/23 1/9/5
f 27/43/39 38/51/47 44/49/45 34/44/40
f 34/44/40 44/49/45 40/46/42 29/36/32
f 29/36/32 40/46/42 37/45/41 25/33/29
f 69/65/4 58/66/4 60/67/57 70/68/57
f 70/68/57 60/67/57 59/69/58 71/70/58
f 71/70/58 59/69/58 57/71/2 72/72/2
f 2/15/11 26/39/35 32/37/33 7/16/12
f 7/16/12 32/37/33 28/34/30 11/17/13
f 11/17/13 28/34/30 25/33/29 3/19/15
f 73/73/59 39/55/51 47/53/49 74/74/60
f 74/74/60 47/53/49 43/52/48 75/75/61
f 75/75/61 43/52/48 38/51/47 76/76/62
f 77/77/63 2/15/11 8/13/9 78/78/64
f 78/78/64 8/13/9 4/10/6 79/79/65
f 79/79/65 4/10/6 1/9/5 80/80/66
f 39/55/51 13/21/17 17/24/20 46/56/52
f 46/56/52 17/24/20 22/32/28 41/48/44
f 41/48/44 22/32/28 15/31/27 37/45/41
f 53/81/56 50/82/67 80/83/67 68/84/56
f 52/85/68 79/79/68 80/80/67 50/86/67
f 51/87/69 78/78/69 79/79/68 52/85/68
f 49/88/3 77/77/3 78/78/69 51/87/69
f 64/89/70 75/75/70 76/76/1 62/90/1
f 63/91/71 74/74/71 75/75/70 64/89/70
f 61/92/72 73/73/72 74/74/71 63/91/71
f 35/41/37 71/70/73 72/72/74 27/43/39
f 31/40/36 70/68/75 71/70/73 35/41/37
f 26/39/35 69/65/76 70/68/75 31/40/36
f 20/25/21 67/62/77 68/64/78 14/27/23
f 16/22/18 66/60/79 67/62/77 20/25/21
f 13/21/17 65/57/80 66/60/79 16/22/18
f 54/93/53 65/94/53 73/95/72 61/96/72
