# Blender 4.1.1
# www.blender.org
o Cube.006
v 12.000000 0.500000 -1.000000
v 12.000000 -0.500000 -1.000000
v 12.000000 0.500000 1.000000
v 12.000000 -0.500000 1.000000
v -12.000000 0.500000 -1.000000
v -12.000000 -0.500000 -1.000000
v -12.000000 0.500000 1.000000
v -12.000000 -0.500000 1.000000
v 11.460313 -0.500000 -1.000000
v -11.460313 -0.500000 -1.000000
v 11.460313 0.500000 1.000000
v -11.460313 0.500000 1.000000
v -11.460313 -0.500000 1.000000
v 11.460313 -0.500000 1.000000
v -11.460313 0.500000 -1.000000
v 11.460313 0.500000 -1.000000
vn -0.0000 1.0000 -0.0000
vn -0.0000 -0.0000 1.0000
vn -1.0000 -0.0000 -0.0000
vn -0.0000 -1.0000 -0.0000
vn 1.0000 -0.0000 -0.0000
vn -0.0000 -0.0000 -1.0000
vt 0.335586 0.986634
vt 0.006984 0.986634
vt 0.006984 0.012770
vt 0.335586 0.012770
vt 0.339609 0.000100
vt 0.339609 0.999900
vt 0.018828 0.999900
vt 0.018828 0.000100
vt 0.012578 0.999900
vt 0.012578 0.000100
vt 0.987422 0.000100
vt 0.987422 0.999900
vt 0.664187 0.986634
vt 0.992788 0.986634
vt 0.992788 0.012770
vt 0.664187 0.012770
vt 0.987422 0.000100
vt 0.987422 0.999900
vt 0.012578 0.999900
vt 0.012578 0.000100
vt 0.660391 0.999900
vt 0.660390 0.000100
vt 0.981172 0.000100
vt 0.981172 0.999900
vt 0.018828 0.999900
vt 0.018828 0.000100
vt 0.339609 0.000100
vt 0.339609 0.999900
vt 0.335586 0.986634
vt 0.335586 0.012770
vt 0.340128 0.986634
vt 0.659644 0.986634
vt 0.659644 0.012770
vt 0.340128 0.012770
vt 0.981172 0.000100
vt 0.981172 0.999900
vt 0.660390 0.999900
vt 0.660390 0.000100
vt 0.664187 0.986634
vt 0.664187 0.012770
vt 0.659644 0.986634
vt 0.340128 0.986634
vt 0.340128 0.012770
vt 0.659644 0.012770
s 0
f 15/1/1 5/2/1 7/3/1 12/4/1
f 13/5/2 12/6/2 7/7/2 8/8/2
f 8/9/3 7/10/3 5/11/3 6/12/3
f 9/13/4 2/14/4 4/15/4 14/16/4
f 2/17/5 1/18/5 3/19/5 4/20/5
f 9/21/6 16/22/6 1/23/6 2/24/6
f 6/25/6 5/26/6 15/27/6 10/28/6
f 10/28/6 15/27/6 16/22/6 9/21/6
f 6/2/4 10/29/4 13/30/4 8/3/4
f 10/31/4 9/32/4 14/33/4 13/34/4
f 4/35/2 3/36/2 11/37/2 14/38/2
f 14/38/2 11/37/2 12/6/2 13/5/2
f 1/14/1 16/39/1 11/40/1 3/15/1
f 16/41/1 15/42/1 12/43/1 11/44/1
