# Blender 4.1.1
# www.blender.org
o Cube.004
v 1.000000 2.000000 -1.000000
v 1.000000 0.000000 -1.000000
v 1.000000 2.000000 1.000000
v 1.000000 0.000000 1.000000
v -1.000000 2.000000 -1.000000
v -1.000000 0.000000 -1.000000
v -1.000000 2.000000 1.000000
v -1.000000 0.000000 1.000000
vn -0.0000 -0.0000 1.0000
vn -1.0000 -0.0000 -0.0000
vn 1.0000 -0.0000 -0.0000
vn -0.0000 -0.0000 -1.0000
vt 0.990606 0.009037
vt 0.990606 0.985632
vt 0.014010 0.985632
vt 0.014010 0.009037
vt 0.990606 0.009037
vt 0.014010 0.009037
vt 0.014010 0.009036
vt 0.990606 0.009036
s 0
f 4/1/1 3/2/1 7/3/1 8/4/1
f 8/5/2 7/2/2 5/3/2 6/6/2
f 2/6/3 1/3/3 3/2/3 4/5/3
f 6/7/4 5/3/4 1/2/4 2/8/4
