# Blender 4.1.1
# www.blender.org
o Cube.001
v 0.720059 0.500000 -0.720059
v 0.500000 -0.500000 -0.500000
v 0.720059 0.500000 0.720059
v 0.500000 -0.500000 0.500000
v -0.720059 0.500000 -0.720059
v -0.500000 -0.500000 -0.500000
v -0.720059 0.500000 0.720059
v -0.500000 -0.500000 0.500000
v -1.000000 -0.500000 -1.000000
v -1.000000 -0.500000 1.000000
v 1.000000 -0.500000 -1.000000
v 1.000000 0.500000 -1.000000
v -1.000000 0.500000 1.000000
v 1.000000 0.500000 1.000000
v 1.000000 -0.500000 1.000000
v -1.000000 0.500000 -1.000000
v 0.720059 0.333713 0.720059
v -0.720059 0.333713 0.720059
v 0.720059 0.333713 -0.720059
v -0.720059 0.333713 -0.720059
vn -0.0000 -0.0000 1.0000
vn -0.0000 1.0000 -0.0000
vn -0.0000 -1.0000 -0.0000
vn -1.0000 -0.0000 -0.0000
vn 1.0000 -0.0000 -0.0000
vn -0.0000 -0.0000 -1.0000
vt 0.986605 0.014715
vt 0.018624 0.014715
vt 0.000095 0.002175
vt 1.001106 0.002175
vt 0.749812 0.250117
vt 0.250494 0.250117
vt 0.000835 0.000458
vt 0.999471 0.000458
vt 0.999900 0.999900
vt 0.999900 0.000100
vt 0.000100 0.999900
vt 0.000100 0.000100
vt 0.250494 0.749436
vt 0.749812 0.749436
vt 0.999471 0.999095
vt 0.000835 0.999095
vt 0.999900 0.000100
vt 0.999900 0.999900
vt 0.000100 0.999900
vt 0.000100 0.000100
vt 0.000100 0.999900
vt 0.000100 0.000100
vt 0.999900 0.000100
vt 0.999900 0.999900
vt 0.018624 0.982018
vt 0.986605 0.982018
vt 1.001106 1.000439
vt 0.000095 1.000439
s 0
f 1/1/1 5/2/1 20/3/1 19/4/1
f 3/5/2 7/6/2 13/7/2 14/8/2
f 8/9/3 4/10/3 15/10/3 10/9/3
f 6/11/3 2/12/3 4/10/3 8/9/3
f 5/13/2 1/14/2 12/15/2 16/16/2
f 2/12/3 6/11/3 9/11/3 11/12/3
f 15/17/1 14/18/1 13/19/1 10/20/1
f 10/21/4 13/22/4 16/23/4 9/24/4
f 11/17/5 12/18/5 14/19/5 15/20/5
f 9/21/6 16/22/6 12/23/6 11/24/6
f 4/10/3 2/12/3 11/12/3 15/10/3
f 6/11/3 8/9/3 10/9/3 9/11/3
f 7/6/2 5/13/2 16/16/2 13/7/2
f 1/14/2 3/5/2 14/8/2 12/15/2
f 19/14/2 20/13/2 18/6/2 17/5/2
f 7/25/6 3/26/6 17/27/6 18/28/6
f 5/2/5 7/25/5 18/28/5 20/3/5
f 3/26/4 1/1/4 19/4/4 17/27/4
