# Blender 4.1.1
# www.blender.org
mtllib PuzzleCube.mtl
o Cube.006
v 0.431711 0.431711 -0.497145
v 0.431711 0.497145 -0.431711
v 0.497145 0.431711 -0.431711
v 0.431711 0.477980 -0.477980
v 0.469489 0.469489 -0.469489
v 0.477980 0.477980 -0.431711
v 0.477980 0.431711 -0.477980
v 0.431711 -0.497145 -0.431711
v 0.431711 -0.431711 -0.497145
v 0.497145 -0.431711 -0.431711
v 0.431711 -0.477980 -0.477980
v 0.469489 -0.469489 -0.469489
v 0.477980 -0.431711 -0.477980
v 0.477980 -0.477980 -0.431711
v 0.497145 0.431711 0.431711
v 0.431711 0.497145 0.431711
v 0.431711 0.431711 0.497145
v 0.477980 0.477980 0.431711
v 0.469489 0.469489 0.469489
v 0.431711 0.477980 0.477980
v 0.477980 0.431711 0.477980
v 0.497145 -0.431711 0.431711
v 0.431711 -0.431711 0.497145
v 0.431711 -0.497145 0.431711
v 0.477980 -0.431711 0.477980
v 0.469489 -0.469489 0.469489
v 0.431711 -0.477980 0.477980
v 0.477980 -0.477980 0.431711
v -0.431711 0.431711 -0.497145
v -0.497145 0.431711 -0.431711
v -0.431711 0.497145 -0.431711
v -0.477980 0.431711 -0.477980
v -0.469489 0.469489 -0.469489
v -0.477980 0.477980 -0.431711
v -0.431711 0.477980 -0.477980
v -0.497145 -0.431711 -0.431711
v -0.431711 -0.431711 -0.497145
v -0.431711 -0.497145 -0.431711
v -0.477980 -0.431711 -0.477980
v -0.469489 -0.469489 -0.469489
v -0.431711 -0.477980 -0.477980
v -0.477980 -0.477980 -0.431711
v -0.497145 0.431711 0.431711
v -0.431711 0.431711 0.497145
v -0.431711 0.497145 0.431711
v -0.477980 0.431711 0.477980
v -0.469489 0.469489 0.469489
v -0.431711 0.477980 0.477980
v -0.477980 0.477980 0.431711
v -0.431711 -0.497145 0.431711
v -0.431711 -0.431711 0.497145
v -0.497145 -0.431711 0.431711
v -0.431711 -0.477980 0.477980
v -0.469489 -0.469489 0.469489
v -0.477980 -0.431711 0.477980
v -0.477980 -0.477980 0.431711
v 0.308554 0.308554 -0.451956
v 0.308554 0.451956 -0.308554
v 0.451956 0.308554 -0.308554
v 0.392469 0.434532 -0.434532
v 0.426814 0.426814 -0.426814
v 0.434532 0.434532 -0.392469
v 0.434532 0.392469 -0.434532
v 0.308554 -0.451956 -0.308554
v 0.308554 -0.308554 -0.451956
v 0.451956 -0.308554 -0.308554
v 0.392469 -0.434532 -0.434532
v 0.426814 -0.426814 -0.426814
v 0.434532 -0.392469 -0.434532
v 0.434532 -0.434532 -0.392469
v 0.451956 0.308554 0.308554
v 0.308554 0.451956 0.308554
v 0.308554 0.308554 0.451956
v 0.434532 0.434532 0.392469
v 0.426814 0.426814 0.426814
v 0.392469 0.434532 0.434532
v 0.434532 0.392469 0.434532
v 0.451956 -0.308554 0.308554
v 0.308554 -0.308554 0.451956
v 0.308554 -0.451956 0.308554
v 0.434532 -0.392469 0.434532
v 0.426814 -0.426814 0.426814
v 0.392469 -0.434532 0.434532
v 0.434532 -0.434532 0.392469
v -0.308554 0.308554 -0.451956
v -0.451956 0.308554 -0.308554
v -0.308554 0.451956 -0.308554
v -0.434532 0.392469 -0.434532
v -0.426814 0.426814 -0.426814
v -0.434532 0.434532 -0.392469
v -0.392469 0.434532 -0.434532
v -0.451956 -0.308554 -0.308554
v -0.308554 -0.308554 -0.451956
v -0.308554 -0.451956 -0.308554
v -0.434532 -0.392469 -0.434532
v -0.426814 -0.426814 -0.426814
v -0.392469 -0.434532 -0.434532
v -0.434532 -0.434532 -0.392469
v -0.451956 0.308554 0.308554
v -0.308554 0.308554 0.451956
v -0.308554 0.451956 0.308554
v -0.434532 0.392469 0.434532
v -0.426814 0.426814 0.426814
v -0.392469 0.434532 0.434532
v -0.434532 0.434532 0.392469
v -0.308554 -0.451956 0.308554
v -0.308554 -0.308554 0.451956
v -0.451956 -0.308554 0.308554
v -0.392469 -0.434532 0.434532
v -0.426814 -0.426814 0.426814
v -0.434532 -0.392469 0.434532
v -0.434532 -0.434532 0.392469
v -0.392469 -0.451956 -0.392469
v -0.392469 -0.451956 0.392469
v -0.451956 -0.392469 0.392469
v -0.451956 -0.392469 -0.392469
v 0.392469 -0.451956 -0.392469
v -0.392469 -0.392469 -0.451956
v 0.392469 -0.392469 -0.451956
v 0.451956 0.392469 -0.392469
v 0.451956 -0.392469 -0.392469
v 0.392469 0.392469 -0.451956
v -0.392469 -0.392469 0.451956
v -0.392469 0.392469 0.451956
v -0.451956 0.392469 0.392469
v 0.392469 0.392469 0.451956
v 0.392469 -0.392469 0.451956
v 0.451956 -0.392469 0.392469
v 0.451956 0.392469 0.392469
v -0.392469 0.392469 -0.451956
v -0.451956 0.392469 -0.392469
v 0.392469 0.451956 0.392469
v -0.392469 0.451956 0.392469
v 0.392469 0.451956 -0.392469
v 0.392469 -0.451956 0.392469
v -0.392469 0.451956 -0.392469
v -0.179487 -0.411047 -0.179487
v -0.179487 -0.411047 0.179487
v -0.411047 -0.179487 0.179487
v -0.411047 -0.179487 -0.179487
v 0.179487 -0.411047 -0.179487
v -0.179487 -0.179487 -0.411047
v 0.179487 -0.179487 -0.411047
v 0.411047 0.179487 -0.179487
v 0.411047 -0.179487 -0.179487
v 0.179487 0.179487 -0.411047
v -0.179487 -0.179487 0.411047
v -0.179487 0.179487 0.411047
v -0.411047 0.179487 0.179487
v 0.179487 0.179487 0.411047
v 0.179487 -0.179487 0.411047
v 0.411047 -0.179487 0.179487
v 0.411047 0.179487 0.179487
v -0.179487 0.179487 -0.411047
v -0.411047 0.179487 -0.179487
v 0.179487 0.411047 0.179487
v -0.179487 0.411047 0.179487
v 0.179487 0.411047 -0.179487
v 0.179487 -0.411047 0.179487
v -0.179487 0.411047 -0.179487
v -0.308554 -0.411047 -0.308554
v -0.308554 -0.411047 0.308554
v -0.411047 -0.308554 0.308554
v -0.411047 -0.308554 -0.308554
v 0.308554 -0.411047 -0.308554
v -0.308554 -0.308554 -0.411047
v 0.308554 -0.308554 -0.411047
v 0.411047 0.308554 -0.308554
v 0.411047 -0.308554 -0.308554
v 0.308554 0.308554 -0.411047
v -0.308554 -0.308554 0.411047
v -0.308554 0.308554 0.411047
v -0.411047 0.308554 0.308554
v 0.308554 0.308554 0.411047
v 0.308554 -0.308554 0.411047
v 0.411047 -0.308554 0.308554
v 0.411047 0.308554 0.308554
v -0.308554 0.308554 -0.411047
v -0.411047 0.308554 -0.308554
v 0.308554 0.411047 0.308554
v -0.308554 0.411047 0.308554
v 0.308554 0.411047 -0.308554
v 0.308554 -0.411047 0.308554
v -0.308554 0.411047 -0.308554
v -0.179487 -0.448547 -0.179487
v -0.179487 -0.448547 0.179487
v -0.448547 -0.179487 0.179487
v -0.448547 -0.179487 -0.179487
v 0.179487 -0.448547 -0.179487
v -0.179487 -0.179487 -0.448547
v 0.179487 -0.179487 -0.448547
v 0.448547 0.179487 -0.179487
v 0.448547 -0.179487 -0.179487
v 0.179487 0.179487 -0.448547
v -0.179487 -0.179487 0.448547
v -0.179487 0.179487 0.448547
v -0.448547 0.179487 0.179487
v 0.179487 0.179487 0.448547
v 0.179487 -0.179487 0.448547
v 0.448547 -0.179487 0.179487
v 0.448547 0.179487 0.179487
v -0.179487 0.179487 -0.448547
v -0.448547 0.179487 -0.179487
v 0.179487 0.448547 0.179487
v -0.179487 0.448547 0.179487
v 0.179487 0.448547 -0.179487
v 0.179487 -0.448547 0.179487
v -0.179487 0.448547 -0.179487
vn 0.1794 0.9673 0.1794
vn 0.1794 0.9673 -0.1794
vn -0.1794 0.9673 -0.1794
vn -0.1794 0.9673 0.1794
vn 0.9673 0.1794 -0.1794
vn 0.9673 0.1794 0.1794
vn 0.9673 -0.1794 0.1794
vn 0.9673 -0.1794 -0.1794
vn -0.1794 0.1794 -0.9673
vn 0.1794 0.1794 -0.9673
vn 0.1794 -0.1794 -0.9673
vn -0.1794 -0.1794 -0.9673
vn -0.1794 -0.9673 0.1794
vn -0.1794 -0.9673 -0.1794
vn 0.1794 -0.9673 -0.1794
vn 0.1794 -0.9673 0.1794
vn -0.9673 0.1794 0.1794
vn -0.9673 0.1794 -0.1794
vn -0.9673 -0.1794 -0.1794
vn -0.9673 -0.1794 0.1794
vn -0.1794 -0.1794 0.9673
vn -0.6965 -0.1726 0.6965
vn -0.5774 -0.5774 0.5774
vn -0.1726 -0.6965 0.6965
vn -0.6965 -0.6965 0.1726
vn -0.6965 0.6965 0.1726
vn -0.5774 0.5774 0.5774
vn -0.1726 0.6965 0.6965
vn -0.1794 0.1794 0.9673
vn -0.6965 0.1726 0.6965
vn -0.6965 -0.1726 -0.6965
vn -0.5774 -0.5774 -0.5774
vn -0.6965 -0.6965 -0.1726
vn -0.1726 -0.6965 -0.6965
vn -0.6965 0.6965 -0.1726
vn -0.5774 0.5774 -0.5774
vn -0.6965 0.1726 -0.6965
vn -0.1726 0.6965 -0.6965
vn 0.1794 -0.1794 0.9673
vn 0.1726 -0.6965 0.6965
vn 0.5774 -0.5774 0.5774
vn 0.6965 -0.1726 0.6965
vn 0.6965 -0.6965 0.1726
vn 0.6965 0.6965 0.1726
vn 0.5774 0.5774 0.5774
vn 0.6965 0.1726 0.6965
vn 0.1794 0.1794 0.9673
vn 0.1726 0.6965 0.6965
vn 0.6965 -0.6965 -0.1726
vn 0.5774 -0.5774 -0.5774
vn 0.6965 -0.1726 -0.6965
vn 0.1726 -0.6965 -0.6965
vn 0.6965 0.6965 -0.1726
vn 0.5774 0.5774 -0.5774
vn 0.1726 0.6965 -0.6965
vn 0.6965 0.1726 -0.6965
vn -1.0000 -0.0000 -0.0000
vn -0.0000 -0.0000 -1.0000
vn -0.0000 -1.0000 -0.0000
vn 1.0000 -0.0000 -0.0000
vn 0.1585 0.3600 -0.9194
vn 0.3251 0.3251 -0.8881
vn 0.3600 0.1585 -0.9194
vn 0.3600 0.9194 -0.1585
vn 0.3251 0.8881 -0.3251
vn 0.1585 0.9194 -0.3600
vn 0.9194 0.1585 -0.3600
vn 0.8881 0.3251 -0.3251
vn 0.9194 0.3600 -0.1585
vn 0.1585 -0.9194 -0.3600
vn 0.3251 -0.8881 -0.3251
vn 0.3600 -0.9194 -0.1585
vn 0.3600 -0.1585 -0.9194
vn 0.3251 -0.3251 -0.8881
vn 0.1585 -0.3600 -0.9194
vn 0.9194 -0.3600 -0.1585
vn 0.8881 -0.3251 -0.3251
vn 0.9194 -0.1585 -0.3600
vn 0.9194 0.3600 0.1585
vn 0.8881 0.3251 0.3251
vn 0.9194 0.1585 0.3600
vn 0.1585 0.9194 0.3600
vn 0.3251 0.8881 0.3251
vn 0.3600 0.9194 0.1585
vn 0.3600 0.1585 0.9194
vn 0.3251 0.3251 0.8881
vn 0.1585 0.3600 0.9194
vn 0.9194 -0.1585 0.3600
vn 0.8881 -0.3251 0.3251
vn 0.9194 -0.3600 0.1585
vn 0.1585 -0.3600 0.9194
vn 0.3251 -0.3251 0.8881
vn 0.3600 -0.1585 0.9194
vn 0.3600 -0.9194 0.1585
vn 0.3251 -0.8881 0.3251
vn 0.1585 -0.9194 0.3600
vn -0.3600 0.1585 -0.9194
vn -0.3251 0.3251 -0.8881
vn -0.1585 0.3600 -0.9194
vn -0.9194 0.3600 -0.1585
vn -0.8881 0.3251 -0.3251
vn -0.9194 0.1585 -0.3600
vn -0.1585 0.9194 -0.3600
vn -0.3251 0.8881 -0.3251
vn -0.3600 0.9194 -0.1585
vn -0.9194 -0.1585 -0.3600
vn -0.8881 -0.3251 -0.3251
vn -0.9194 -0.3600 -0.1585
vn -0.1585 -0.3600 -0.9194
vn -0.3251 -0.3251 -0.8881
vn -0.3600 -0.1585 -0.9194
vn -0.3600 -0.9194 -0.1585
vn -0.3251 -0.8881 -0.3251
vn -0.1585 -0.9194 -0.3600
vn -0.9194 0.1585 0.3600
vn -0.8881 0.3251 0.3251
vn -0.9194 0.3600 0.1585
vn -0.1585 0.3600 0.9194
vn -0.3251 0.3251 0.8881
vn -0.3600 0.1585 0.9194
vn -0.3600 0.9194 0.1585
vn -0.3251 0.8881 0.3251
vn -0.1585 0.9194 0.3600
vn -0.1585 -0.9194 0.3600
vn -0.3251 -0.8881 0.3251
vn -0.3600 -0.9194 0.1585
vn -0.3600 -0.1585 0.9194
vn -0.3251 -0.3251 0.8881
vn -0.1585 -0.3600 0.9194
vn -0.9194 -0.3600 0.1585
vn -0.8881 -0.3251 0.3251
vn -0.9194 -0.1585 0.3600
vn -0.0000 -0.0000 1.0000
vn -0.0000 1.0000 -0.0000
vt 0.065897 0.934103
vt 0.934103 0.934103
vt 0.934103 0.065897
vt 0.065897 0.065897
vt 0.065897 0.934103
vt 0.934103 0.934103
vt 0.934103 0.065897
vt 0.065897 0.065897
vt 0.934103 0.065897
vt 0.065897 0.065897
vt 0.065897 0.934103
vt 0.934103 0.934103
vt 0.065897 0.065897
vt 0.065897 0.934103
vt 0.934103 0.934103
vt 0.999900 0.065897
vt 0.972091 0.000100
vt 0.934103 0.000100
vt 0.999900 0.065897
vt 0.972091 0.000100
vt 0.934103 0.000100
vt 0.934103 0.999900
vt 0.999900 0.972091
vt 0.999900 0.934103
vt 0.065897 0.000100
vt 0.000100 0.027909
vt 0.000100 0.065897
vt 0.934103 0.999900
vt 0.999900 0.972091
vt 0.999900 0.934103
vt 0.999900 0.065897
vt 0.972091 0.000100
vt 0.934103 0.000100
vt 0.000100 0.934103
vt 0.027909 0.999900
vt 0.065897 0.999900
vt 0.065897 0.000100
vt 0.000100 0.027909
vt 0.000100 0.065897
vt 0.065897 0.000100
vt 0.000100 0.027909
vt 0.000100 0.065897
vt 0.972091 0.000100
vt 0.934103 0.000100
vt 0.065897 0.000100
vt 0.000100 0.027909
vt 0.000100 0.065897
vt 0.934103 0.999900
vt 0.999900 0.972091
vt 0.999900 0.934103
vt 0.000100 0.934103
vt 0.027909 0.999900
vt 0.065897 0.999900
vt 0.000100 0.934103
vt 0.027909 0.999900
vt 0.000100 0.934103
vt 0.027909 0.999900
vt 0.065897 0.999900
vt 0.934103 0.999900
vt 0.999900 0.972091
vt 0.999900 0.934103
vt 0.116558 0.116558
vt 0.883442 0.116558
vt 0.116558 0.883442
vt 0.116558 0.116558
vt 0.116558 0.116558
vt 0.883442 0.116558
vt 0.883442 0.116558
vt 0.116558 0.883442
vt 0.116558 0.116558
vt 0.883442 0.883442
vt 0.116558 0.883442
vt 0.883442 0.883442
vt 0.883442 0.116558
vt 0.116558 0.883442
vt 0.883442 0.883442
vt 0.698528 0.698528
vt 0.301472 0.698528
vt 0.698528 0.698528
vt 0.301472 0.698528
vt 0.301472 0.301472
vt 0.301472 0.301472
vt 0.698528 0.301472
vt 0.301472 0.301472
vt 0.301472 0.698528
vt 0.698528 0.698528
vt 0.698528 0.301472
vt 0.698528 0.301472
vt 0.698528 0.301472
s 1
usemtl Material
f 64/62/57 80/63/57 183/63/57 165/62/57
f 108/64/58 99/65/58 173/65/58 163/64/58
f 72/66/57 58/67/57 182/67/57 180/66/57
f 85/65/59 57/68/59 170/68/59 178/65/59
f 100/69/60 107/70/60 171/70/60 172/69/60
f 122/7/10 60/18/61 61/17/62 63/16/63
f 134/3/2 62/21/64 61/20/65 60/19/66
f 120/12/5 63/24/67 61/23/68 62/22/69
f 117/4/15 67/27/70 68/26/71 70/25/72
f 119/6/11 69/30/73 68/29/74 67/28/75
f 121/9/8 70/33/76 68/32/77 69/31/78
f 129/11/6 74/36/79 75/35/80 77/34/81
f 132/13/1 76/39/82 75/38/83 74/37/84
f 126/12/47 77/24/85 75/23/86 76/22/87
f 128/10/7 81/42/88 82/41/89 84/40/90
f 127/9/39 83/33/91 82/32/92 81/31/93
f 135/3/16 84/44/94 82/43/95 83/16/96
f 130/8/9 88/47/97 89/46/98 91/45/99
f 131/7/18 90/18/100 89/17/101 88/16/102
f 136/15/3 91/50/103 89/49/104 90/48/105
f 116/6/19 95/30/106 96/29/107 98/28/108
f 118/5/12 97/53/109 96/52/110 95/51/111
f 113/1/14 98/36/112 96/55/113 97/54/114
f 125/8/17 102/47/115 103/46/116 105/45/117
f 124/11/29 104/36/118 103/35/119 102/34/120
f 133/14/4 105/58/121 103/57/122 104/56/123
f 114/2/13 109/61/124 110/60/125 112/59/126
f 123/10/21 111/42/127 110/41/128 109/40/129
f 115/5/20 112/53/130 110/52/131 111/51/132
f 113/1/14 114/2/13 112/59/126 98/36/112
f 98/28/108 112/53/130 115/5/20 116/6/19
f 117/4/15 113/1/14 97/54/114 67/27/70
f 67/28/75 97/53/109 118/5/12 119/6/11
f 120/12/5 121/9/8 69/31/78 63/24/67
f 63/16/63 69/30/73 119/6/11 122/7/10
f 123/10/21 124/11/29 102/34/120 111/42/127
f 111/51/132 102/47/115 125/8/17 115/5/20
f 126/12/47 127/9/39 81/31/93 77/24/85
f 77/34/81 81/42/88 128/10/7 129/11/6
f 130/8/9 118/5/12 95/51/111 88/47/97
f 88/16/102 95/30/106 116/6/19 131/7/18
f 132/13/1 133/14/4 104/56/123 76/39/82
f 76/22/87 104/36/118 124/11/29 126/12/47
f 134/3/2 132/13/1 74/37/84 62/21/64
f 62/22/69 74/36/79 129/11/6 120/12/5
f 114/2/13 135/3/16 83/16/96 109/61/124
f 109/40/129 83/33/91 127/9/39 123/10/21
f 133/14/4 136/15/3 90/48/105 105/58/121
f 105/45/117 90/18/100 131/7/18 125/8/17
f 136/15/3 134/3/2 60/19/66 91/50/103
f 91/45/99 60/18/61 122/7/10 130/8/9
f 135/3/16 117/4/15 70/25/72 84/44/94
f 84/40/90 70/33/76 121/9/8 128/10/7
f 73/71/59 100/69/59 172/69/59 174/71/59
f 94/72/59 106/71/59 114/2/13 113/1/14
f 108/64/57 92/73/57 116/6/19 115/5/20
f 64/62/59 94/72/59 113/1/14 117/4/15
f 93/64/58 65/73/58 119/6/11 118/5/12
f 59/71/60 66/74/60 121/9/8 120/12/5
f 65/73/58 57/68/58 122/7/10 119/6/11
f 107/70/133 100/69/133 124/11/29 123/10/21
f 99/65/57 108/64/57 115/5/20 125/8/17
f 73/71/133 79/74/133 127/9/39 126/12/47
f 78/70/60 71/69/60 129/11/6 128/10/7
f 85/65/58 93/64/58 118/5/12 130/8/9
f 92/73/57 86/68/57 131/7/18 116/6/19
f 72/66/134 101/75/134 133/14/4 132/13/1
f 100/69/133 73/71/133 126/12/47 124/11/29
f 58/67/134 72/66/134 132/13/1 134/3/2
f 71/69/60 59/71/60 120/12/5 129/11/6
f 106/71/59 80/63/59 135/3/16 114/2/13
f 79/74/133 107/70/133 123/10/21 127/9/39
f 101/75/134 87/76/134 136/15/3 133/14/4
f 86/68/57 99/65/57 125/8/17 131/7/18
f 87/76/134 58/67/134 134/3/2 136/15/3
f 57/68/58 85/65/58 130/8/9 122/7/10
f 80/63/59 64/62/59 117/4/15 135/3/16
f 66/74/60 78/70/60 128/10/7 121/9/8
f 160/77/57 157/78/57 205/78/57 208/77/57
f 143/79/59 142/80/59 190/80/59 191/79/59
f 142/80/57 154/81/57 202/81/57 190/80/57
f 147/82/59 151/83/59 199/83/59 195/82/59
f 137/78/58 141/84/58 189/84/58 185/78/58
f 153/85/133 152/82/133 200/82/133 201/85/133
f 106/71/60 94/72/60 161/72/60 162/71/60
f 59/71/59 71/69/59 177/69/59 168/71/59
f 79/74/57 73/71/57 174/71/57 175/74/57
f 78/70/134 66/74/134 169/74/134 176/70/134
f 92/73/134 108/64/134 163/64/134 164/73/134
f 80/63/58 106/71/58 162/71/58 183/63/58
f 71/69/58 78/70/58 176/70/58 177/69/58
f 94/72/133 64/62/133 165/62/133 161/72/133
f 107/70/134 79/74/134 175/74/134 171/70/134
f 93/64/60 85/65/60 178/65/60 166/64/60
f 65/73/134 93/64/134 166/64/134 167/73/134
f 87/76/60 101/75/60 181/75/60 184/76/60
f 86/68/133 92/73/133 164/73/133 179/68/133
f 66/74/133 59/71/133 168/71/133 169/74/133
f 99/65/59 86/68/59 179/68/59 173/65/59
f 101/75/58 72/66/58 180/66/58 181/75/58
f 57/68/57 65/73/57 167/73/57 170/68/57
f 58/67/133 87/76/133 184/76/133 182/67/133
f 185/78/59 189/84/59 207/89/59 186/79/59
f 187/80/57 197/81/57 203/87/57 188/79/57
f 199/83/133 198/86/133 196/85/133 195/82/133
f 206/88/134 208/77/134 205/78/134 204/81/134
f 193/83/60 192/86/60 201/85/60 200/82/60
f 190/80/58 202/81/58 194/87/58 191/79/58
f 155/87/58 140/79/58 188/79/58 203/87/58
f 145/83/58 144/86/58 192/86/58 193/83/58
f 149/81/134 155/87/134 203/87/134 197/81/134
f 157/78/133 156/81/133 204/81/133 205/78/133
f 146/87/60 143/79/60 191/79/60 194/87/60
f 158/88/58 160/77/58 208/77/58 206/88/58
f 150/86/134 148/85/134 196/85/134 198/86/134
f 148/85/57 147/82/57 195/82/57 196/85/57
f 154/81/134 146/87/134 194/87/134 202/81/134
f 156/81/60 158/88/60 206/88/60 204/81/60
f 139/80/133 149/81/133 197/81/133 187/80/133
f 141/84/60 159/89/60 207/89/60 189/84/60
f 138/79/57 137/78/57 185/78/57 186/79/57
f 144/86/134 153/85/134 201/85/134 192/86/134
f 151/83/60 150/86/60 198/86/60 199/83/60
f 152/82/59 145/83/59 193/83/59 200/82/59
f 140/79/59 139/80/59 187/80/59 188/79/59
f 159/89/133 138/79/133 186/79/133 207/89/133
usemtl Outline
f 38/1/1 50/2/2 24/3/3 8/4/4
f 52/5/5 36/6/6 30/7/7 43/8/8
f 23/9/9 51/10/10 44/11/11 17/12/12
f 2/3/13 16/13/14 45/14/15 31/15/16
f 10/9/17 22/10/18 15/11/19 3/12/20
f 1/7/21 7/16/22 5/17/23 4/18/24
f 2/3/13 4/19/24 5/20/23 6/21/25
f 3/12/20 6/22/25 5/23/23 7/24/22
f 8/4/4 14/25/26 12/26/27 11/27/28
f 9/6/29 11/28/28 12/29/27 13/30/30
f 10/9/17 13/31/30 12/32/27 14/33/26
f 15/11/19 21/34/31 19/35/32 18/36/33
f 16/13/14 18/37/33 19/38/32 20/39/34
f 17/12/12 20/22/34 19/23/32 21/24/31
f 22/10/18 28/40/35 26/41/36 25/42/37
f 23/9/9 25/31/37 26/32/36 27/33/38
f 24/3/3 27/16/38 26/43/36 28/44/35
f 29/8/39 35/45/40 33/46/41 32/47/42
f 30/7/7 32/16/42 33/17/41 34/18/43
f 31/15/16 34/48/43 33/49/41 35/50/40
f 36/6/6 42/28/44 40/29/45 39/30/46
f 37/5/47 39/51/46 40/52/45 41/53/48
f 38/1/1 41/54/48 40/55/45 42/36/44
f 43/8/8 49/45/49 47/46/50 46/47/51
f 44/11/11 46/34/51 47/35/50 48/36/52
f 45/14/15 48/56/52 47/57/50 49/58/49
f 50/2/2 56/59/53 54/60/54 53/61/55
f 51/10/10 53/40/55 54/41/54 55/42/56
f 52/5/5 55/51/56 54/52/54 56/53/53
f 38/1/1 42/36/44 56/59/53 50/2/2
f 42/28/44 36/6/6 52/5/5 56/53/53
f 8/4/4 11/27/28 41/54/48 38/1/1
f 11/28/28 9/6/29 37/5/47 41/53/48
f 3/12/20 7/24/22 13/31/30 10/9/17
f 7/16/22 1/7/21 9/6/29 13/30/30
f 51/10/10 55/42/56 46/34/51 44/11/11
f 55/51/56 52/5/5 43/8/8 46/47/51
f 17/12/12 21/24/31 25/31/37 23/9/9
f 21/34/31 15/11/19 22/10/18 25/42/37
f 29/8/39 32/47/42 39/51/46 37/5/47
f 32/16/42 30/7/7 36/6/6 39/30/46
f 16/13/14 20/39/34 48/56/52 45/14/15
f 20/22/34 17/12/12 44/11/11 48/36/52
f 2/3/13 6/21/25 18/37/33 16/13/14
f 6/22/25 3/12/20 15/11/19 18/36/33
f 50/2/2 53/61/55 27/16/38 24/3/3
f 53/40/55 51/10/10 23/9/9 27/33/38
f 45/14/15 49/58/49 34/48/43 31/15/16
f 49/45/49 43/8/8 30/7/7 34/18/43
f 31/15/16 35/50/40 4/19/24 2/3/13
f 35/45/40 29/8/39 1/7/21 4/18/24
f 24/3/3 28/44/35 14/25/26 8/4/4
f 28/40/35 22/10/18 10/9/17 14/33/26
f 37/5/47 9/6/29 1/7/21 29/8/39
usemtl Material.001
f 137/78/59 138/79/59 162/71/59 161/72/59
f 139/80/57 140/79/57 164/73/57 163/64/57
f 141/84/59 137/78/59 161/72/59 165/62/59
f 142/80/58 143/79/58 167/73/58 166/64/58
f 144/86/60 145/83/60 169/74/60 168/71/60
f 143/79/58 146/87/58 170/68/58 167/73/58
f 147/82/133 148/85/133 172/69/133 171/70/133
f 149/81/57 139/80/57 163/64/57 173/65/57
f 150/86/133 151/83/133 175/74/133 174/71/133
f 152/82/60 153/85/60 177/69/60 176/70/60
f 154/81/58 142/80/58 166/64/58 178/65/58
f 140/79/57 155/87/57 179/68/57 164/73/57
f 156/81/134 157/78/134 181/75/134 180/66/134
f 148/85/133 150/86/133 174/71/133 172/69/133
f 158/88/134 156/81/134 180/66/134 182/67/134
f 153/85/60 144/86/60 168/71/60 177/69/60
f 138/79/59 159/89/59 183/63/59 162/71/59
f 151/83/133 147/82/133 171/70/133 175/74/133
f 157/78/134 160/77/134 184/76/134 181/75/134
f 155/87/57 149/81/57 173/65/57 179/68/57
f 160/77/134 158/88/134 182/67/134 184/76/134
f 146/87/58 154/81/58 178/65/58 170/68/58
f 159/89/59 141/84/59 165/62/59 183/63/59
f 145/83/60 152/82/60 176/70/60 169/74/60
